<svg width="120" height="120" viewBox="0 0 120 120" fill="none" xmlns="http://www.w3.org/2000/svg">
  <rect width="120" height="120" rx="28" fill="url(#bg)"/>

  <!-- Palm trunk -->
  <path d="M54 88c4-18 8-36 10-52 1-6 6-9 10-8-3 16-6 37-8 60H54z" fill="#8B5E3C"/>
  <path d="M56 88h18l2 10H54l2-10z" fill="#6B4A2F"/>

  <!-- Palm leaves -->
  <path d="M64 26c10 0 22 4 32 10-14 2-26 3-40 0 2-4 5-7 8-10z" fill="#22C55E"/>
  <path d="M60 30c-10 2-20 8-30 16 6 0 18-2 30-6-1-4-1-7 0-10z" fill="#34D399"/>
  <path d="M68 32c8 6 16 14 22 24-10-4-20-10-30-18 2-2 4-4 8-6z" fill="#10B981"/>
  <path d="M56 32c-6-6-14-10-24-12 8 8 16 16 26 22-1-4-1-7-2-10z" fill="#6EE7B7"/>

  <!-- Soccer ball -->
  <circle cx="84" cy="84" r="20" fill="#FFFFFF" stroke="#0F172A" stroke-width="3"/>
  <polygon points="84,72 76,78 79,88 89,88 92,78" fill="#0F172A"/>
  <circle cx="72" cy="86" r="3" fill="#0F172A"/>
  <circle cx="96" cy="86" r="3" fill="#0F172A"/>
  <circle cx="84" cy="98" r="3" fill="#0F172A"/>

  <!-- Subtle shadow -->
  <ellipse cx="60" cy="98" rx="34" ry="8" fill="rgba(0,0,0,0.12)"/>

  <defs>
    <linearGradient id="bg" x1="0" y1="0" x2="120" y2="120" gradientUnits="userSpaceOnUse">
      <stop stop-color="#0EA5E9"/>
      <stop offset="1" stop-color="#22C55E"/>
    </linearGradient>
  </defs>
</svg>
